<svg width="354" height="182" viewBox="0 0 354 182" fill="none" xmlns="http://www.w3.org/2000/svg">
<g filter="url(#filter0_d)">
<path d="M154 28C154 14.1929 165.193 3 179 3H329C342.807 3 354 14.1929 354 28V167H154V28Z" fill="#EA4435"/>
</g>
<path d="M154 28C154 14.1929 165.193 3 179 3H329C342.807 3 354 14.1929 354 28V64H154V28Z" fill="#E5725F"/>
<ellipse cx="254" cy="63.5" rx="100" ry="19.5" fill="#EA4435"/>
<path d="M163 60H346L337.634 83H172.411L163 60Z" fill="#3D3D6B"/>
<ellipse cx="254.5" cy="59.5" rx="91.5" ry="8.5" fill="#3D3D6B"/>
<ellipse cx="255" cy="83" rx="83" ry="5" fill="#EA4435"/>
<path d="M341 91.4221C341 90.9111 341.078 90.4031 341.232 89.9158L349.046 65.1832C349.391 64.0928 351 64.3409 351 65.4844V160.687C351 161.348 350.371 161.827 349.734 161.651L341.734 159.447C341.301 159.327 341 158.933 341 158.483V91.4221Z" fill="#3D3D6B"/>
<path d="M168 91.4221C168 90.9111 167.922 90.4031 167.768 89.9158L159.954 65.1832C159.609 64.0928 158 64.3409 158 65.4844V160.687C158 161.348 158.629 161.827 159.266 161.651L167.266 159.447C167.699 159.327 168 158.933 168 158.483V91.4221Z" fill="#3D3D6B"/>
<rect x="175" y="84" width="160" height="76" rx="5" fill="#E5725F"/>
<path d="M214.239 3H295.252L309 48H200L214.239 3Z" fill="#EA4435"/>
<path d="M214.668 10.4394C216.653 4.2211 222.431 0 228.958 0H280.817C287.452 0 293.298 4.359 295.193 10.7178L306 47H203L214.668 10.4394Z" fill="#E5725F"/>
<path d="M185 167H325V182H185V167Z" fill="#3D3D6B"/>
<defs>
<filter id="filter0_d" x="0" y="3" width="354" height="172" filterUnits="userSpaceOnUse" color-interpolation-filters="sRGB">
<feFlood flood-opacity="0" result="BackgroundImageFix"/>
<feColorMatrix in="SourceAlpha" type="matrix" values="0 0 0 0 0 0 0 0 0 0 0 0 0 0 0 0 0 0 127 0"/>
<feOffset dx="-150" dy="4"/>
<feGaussianBlur stdDeviation="2"/>
<feColorMatrix type="matrix" values="0 0 0 0 0 0 0 0 0 0 0 0 0 0 0 0 0 0 0.25 0"/>
<feBlend mode="normal" in2="BackgroundImageFix" result="effect1_dropShadow"/>
<feBlend mode="normal" in="SourceGraphic" in2="effect1_dropShadow" result="shape"/>
</filter>
</defs>
</svg>
