<svg width="200" height="167" viewBox="0 0 200 167" fill="none" xmlns="http://www.w3.org/2000/svg">
<path d="M0 28C0 14.1929 11.1929 3 25 3H175C188.807 3 200 14.1929 200 28V167H0V28Z" fill="#EA4435"/>
<path d="M0 28C0 14.1929 11.1929 3 25 3H175C188.807 3 200 14.1929 200 28V64H0V28Z" fill="#E5725F"/>
<ellipse cx="100" cy="63.5" rx="100" ry="19.5" fill="#EA4435"/>
<path d="M9 60H192L183.634 83H18.4114L9 60Z" fill="#3D3D6B"/>
<ellipse cx="100.5" cy="59.5" rx="91.5" ry="8.5" fill="#3D3D6B"/>
<ellipse cx="101" cy="83" rx="83" ry="5" fill="#EA4435"/>
<path d="M187 91.4221C187 90.9111 187.078 90.4031 187.232 89.9158L195.046 65.1832C195.391 64.0928 197 64.3409 197 65.4844V160.687C197 161.348 196.371 161.827 195.734 161.651L187.734 159.447C187.301 159.327 187 158.933 187 158.483V91.4221Z" fill="#3D3D6B"/>
<path d="M14 91.4221C14 90.9111 13.9217 90.4031 13.7677 89.9158L5.95354 65.1832C5.60905 64.0928 4 64.3409 4 65.4844V160.687C4 161.348 4.62892 161.827 5.26566 161.651L13.2657 159.447C13.6995 159.327 14 158.933 14 158.483V91.4221Z" fill="#3D3D6B"/>
<rect x="21" y="84" width="160" height="76" rx="5" fill="#E5725F"/>
<path d="M60.2387 3H141.252L155 48H46L60.2387 3Z" fill="#EA4435"/>
<path d="M60.6683 10.4394C62.6528 4.2211 68.4309 0 74.9582 0H126.817C133.452 0 139.298 4.359 141.193 10.7178L152 47H49L60.6683 10.4394Z" fill="#E5725F"/>
</svg>
