<svg width="313" height="233" viewBox="0 0 313 233" fill="none" xmlns="http://www.w3.org/2000/svg">
<path d="M21 32C21 18.1929 32.1929 7 46 7H267C280.807 7 292 18.1929 292 32V233H21V32Z" fill="#55895A"/>
<path d="M21 32C21 18.1929 32.1929 7 46 7H267C280.807 7 292 18.1929 292 32V130H21V32Z" fill="#A6CBA1"/>
<ellipse cx="156.5" cy="130" rx="135.5" ry="24" fill="#55895A"/>
<path d="M30 126H283L271.434 149H43.0114L30 126Z" fill="#3D3D6B"/>
<ellipse cx="156.5" cy="125.5" rx="126.5" ry="8.5" fill="#3D3D6B"/>
<ellipse cx="157" cy="149" rx="118" ry="5" fill="#55895A"/>
<path d="M37 151.275C37 150.438 36.7901 149.615 36.3895 148.881L26.8779 131.443C26.3818 130.533 25 130.886 25 131.922V226.613C25 227.295 25.6687 227.777 26.3162 227.561L36.3162 224.228C36.7246 224.092 37 223.71 37 223.279V151.275Z" fill="#3D3D6B"/>
<path d="M277 151.275C277 150.438 277.21 149.615 277.611 148.881L287.122 131.443C287.618 130.533 289 130.886 289 131.922V226.613C289 227.295 288.331 227.777 287.684 227.561L277.684 224.228C277.275 224.092 277 223.71 277 223.279V151.275Z" fill="#3D3D6B"/>
<rect x="42" y="150" width="229" height="76" rx="5" fill="#A6CBA1"/>
<path d="M76.7803 7H238.757L267.5 116H46.5L76.7803 7Z" fill="#55895A"/>
<path d="M78.8377 13.0138C80.6313 6.50739 86.5493 2 93.2984 2H222.555C229.4 2 235.377 6.6336 237.082 13.2625L263 114H51L78.8377 13.0138Z" fill="#A6CBA1"/>
<path d="M292 106H310C311.657 106 313 107.343 313 109V118C313 119.105 312.105 120 311 120H292V106Z" fill="#55895A"/>
<path d="M292 116H313V118.5C313 119.328 312.328 120 311.5 120H292V116Z" fill="white"/>
<path d="M292 116H313V118.5C313 119.328 312.328 120 311.5 120H292V116Z" fill="#3D3D6B" fill-opacity="0.9"/>
<path d="M21 106H3C1.34315 106 0 107.343 0 109V118C0 119.105 0.895432 120 2 120H21V106Z" fill="#55895A"/>
<path d="M21 116H0V118.5C0 119.328 0.671574 120 1.5 120H21V116Z" fill="white"/>
<path d="M21 116H0V118.5C0 119.328 0.671574 120 1.5 120H21V116Z" fill="#3D3D6B" fill-opacity="0.9"/>
<rect x="123.043" y="1" width="3" height="75" rx="1.5" transform="rotate(15.5 123.043 1)" fill="#55895A"/>
<rect width="3" height="75" rx="1.5" transform="matrix(-0.968148 0.25038 0.25038 0.968148 193.53 0.855896)" fill="#55895A"/>
<path d="M256 7H266.845C275.627 7 283.764 11.6075 288.283 19.1376L290 22H262C258.686 22 256 19.3137 256 16V7Z" fill="#F9D997" fill-opacity="0.8"/>
<path d="M57 7H46.1548C37.3732 7 29.2355 11.6075 24.7174 19.1376L23 22H51C54.3137 22 57 19.3137 57 16V7Z" fill="#F9D997" fill-opacity="0.8"/>
</svg>
